<svg xmlns="http://www.w3.org/2000/svg" viewBox="0 0 317.95 170.81"><defs><style>.cls-1{fill:#fff;}</style></defs><title>Tokenly_Logo_flatWhite_Borderless</title><g id="Layer_2" data-name="Layer 2"><g id="Layer_1-2" data-name="Layer 1"><path class="cls-1" d="M8.63,82.54h6.3v24.79H25.7v6.3H14.93v25.8h7.92v6H8.63v-31.8H0v-6.3H8.63Z"/><path class="cls-1" d="M32.91,126.32a19.31,19.31,0,0,1,1.57-7.72,19.72,19.72,0,0,1,4.32-6.35A20.79,20.79,0,0,1,45.2,108,19.57,19.57,0,0,1,53,106.41,20.2,20.2,0,0,1,61,108a20.64,20.64,0,0,1,6.45,4.27,19.74,19.74,0,0,1,4.32,6.35,19.84,19.84,0,0,1,0,15.49,19.88,19.88,0,0,1-4.32,6.3A20.58,20.58,0,0,1,61,144.65a20.2,20.2,0,0,1-8,1.57,19.57,19.57,0,0,1-7.82-1.57,20.73,20.73,0,0,1-6.4-4.27,19.87,19.87,0,0,1-4.32-6.3A19.19,19.19,0,0,1,32.91,126.32Zm6.3.1a13.16,13.16,0,0,0,1.07,5.29A13.51,13.51,0,0,0,43.19,136a13.74,13.74,0,0,0,9.69,3.93,13.93,13.93,0,0,0,5.4-1.06A14.13,14.13,0,0,0,62.71,136a13.21,13.21,0,0,0,4-9.58,13.67,13.67,0,0,0-4-9.73,13.72,13.72,0,0,0-4.44-2.93,14,14,0,0,0-5.4-1.06,13.59,13.59,0,0,0-5.35,1.06,13.28,13.28,0,0,0-4.33,2.93,14,14,0,0,0-2.91,4.39A13.53,13.53,0,0,0,39.21,126.42Z"/><path class="cls-1" d="M106.05,139.42h3q-2.34-3-4.57-6t-4.37-6l-5.79,5.34v6.75h7.21v6H80.45v-6h7.62V75.53H81.16v-6.3H94.37v56l12.49-11.59h-5v-6.3h19.61v6.3h-6.81l-5,4.79-5,4.79q2.95,4,5.94,8.06t5.94,8.16h9.14v6H106.05Z"/><path class="cls-1" d="M170.56,122.05,141,133.33a12.94,12.94,0,0,0,4.83,4.8,13.79,13.79,0,0,0,7.06,1.8,13.27,13.27,0,0,0,5.13-1,12.9,12.9,0,0,0,4.11-2.67l1.88,2.29q1,1.17,2,2.29a19.84,19.84,0,0,1-5.94,4,17.93,17.93,0,0,1-7.16,1.42,19.57,19.57,0,0,1-7.82-1.57,20.73,20.73,0,0,1-6.4-4.27,19.87,19.87,0,0,1-4.32-6.3,19.84,19.84,0,0,1,0-15.49,19.72,19.72,0,0,1,4.32-6.35,20.79,20.79,0,0,1,6.4-4.27,19.57,19.57,0,0,1,7.82-1.57,15.28,15.28,0,0,1,5.94,1.17,17.59,17.59,0,0,1,5.08,3.25,21.78,21.78,0,0,1,4,5A25,25,0,0,1,170.56,122.05Zm-17.76-9.35a14,14,0,0,0-5.84,1.21,13.68,13.68,0,0,0-4.51,3.23,13.35,13.35,0,0,0-2.76,4.64,12.59,12.59,0,0,0-.62,5.55q5.84-2.23,11.68-4.42t11.68-4.42a12.37,12.37,0,0,0-4-4.19A10.2,10.2,0,0,0,152.8,112.71Z"/><path class="cls-1" d="M206.92,139.42h7.92v-19a8.46,8.46,0,0,0-2.18-5.16q-2-2.23-6-2.43a15.09,15.09,0,0,0-5.54,1,16.22,16.22,0,0,0-4.62,2.73,12.59,12.59,0,0,0-3.2,4.1,11.66,11.66,0,0,0-1.17,5.21v13.56h7v6H178v-6h7.82v-25.9h-7v-6.2h12.39l.1,2.23q.1,2.13.25,3.81t.25,3.81a16.63,16.63,0,0,1,6.55-7.77,18.34,18.34,0,0,1,10.11-2.9q5.79,0,9.14,3.15a11.44,11.44,0,0,1,3.56,8.23v21.54h6.91v6H206.92Z"/><path class="cls-1" d="M235.16,139.42h7.62V75.53h-6.91v-6.3h13.21v70.19h7.21v6H235.16Z"/><path class="cls-1" d="M269.19,164.82H278q2.34-4.88,4.83-9.7t4.83-9.6q-4.06-8-8.08-15.95t-8.08-15.95H263.4v-6.3h20.72v6.3h-6q3.45,6.45,6.81,13t6,13.1q2.64-6.45,6-13t6.81-13.1h-6.09v-6.3H318v6.3h-7.82q-6.5,12.85-13,25.55t-12.85,25.65h5.79v6H269.19Z"/><path class="cls-1" d="M201.36,38.26,180.92,2.87A5.75,5.75,0,0,0,176,0H158.71V28.88h16V24.33h3.73l3.91,6.77a2.7,2.7,0,0,1,0,2.74A2.75,2.75,0,0,1,180,35.24H131.1a2.75,2.75,0,0,1-2.42-1.41,2.7,2.7,0,0,1,0-2.74l3.9-6.76h3.73v4.55h16V0H135.09a5.75,5.75,0,0,0-5,2.87L109.69,38.26a5.75,5.75,0,0,0,0,5.74l20.43,35.39a5.75,5.75,0,0,0,5,2.87h17.25V53.37h-16v4.55h-3.73l-3.91-6.77a2.7,2.7,0,0,1,0-2.74A2.75,2.75,0,0,1,131.09,47H180a2.75,2.75,0,0,1,2.42,1.41,2.7,2.7,0,0,1,0,2.74l-3.9,6.76h-3.73V53.37h-16V82.25H176a5.75,5.75,0,0,0,5-2.87L201.36,44a5.75,5.75,0,0,0,0-5.74Z"/></g></g></svg>